<svg xmlns="http://www.w3.org/2000/svg" version="1.1" xmlns:xlink="http://www.w3.org/1999/xlink" xmlns:svgjs="http://svgjs.dev/svgjs" viewBox="0 0 1422 800"><defs><linearGradient x1="50%" y1="0%" x2="50%" y2="100%" id="ccchaos-grad"><stop stop-color="hsl(340, 45%, 50%)" stop-opacity="1" offset="0%"></stop><stop stop-color="hsl(340, 45%, 80%)" stop-opacity="1" offset="100%"></stop></linearGradient></defs><g stroke-width="2" stroke="url(#ccchaos-grad)" fill="none" stroke-linecap="round"><path d="M698.14 127.67C707.71 126.87 717.38 126.28 727.14 125.91 736.92 125.3 746.82 124.98 756.83 124.99 766.9 124.86 777.11 125.13 787.46 125.83 797.89 126.51 808.49 127.7 819.22 129.4 830.05 131.19 841 133.55 852.03 136.48 863.1 139.57 874.18 143.26 885.18 147.51 896.07 151.97 906.73 157.01 917.01 162.58 926.96 168.37 936.32 174.67 944.93 181.45 952.9 188.41 959.9 195.82 965.74 203.61 970.74 211.56 974.44 219.86 976.78 228.46 978.24 237.18 978.39 246.16 977.29 255.36 975.63 264.64 973.03 274.11 969.71 283.73 966.48 293.39 963.06 303.18 959.74 313.05 957.34 322.95 955.6 332.92 954.76 342.92 955.46 352.94 957.35 362.98 960.49 372.99 965.23 383.01 971.03 393 977.65 402.91 985.2 412.83 992.72 422.43 999.81 431.68 1006.68 440.92 1012.39 449.8 1016.64 458.31 1019.78 466.8 1021.07 474.9 1020.45 482.6 1018.38 490.27 1014.42 497.54 1008.74 504.4 1001.86 511.24 993.59 517.69 984.22 523.75 974.21 529.83 963.56 535.55 952.51 540.94 941.44 546.42 930.35 551.63 919.41 556.61 908.88 561.78 898.69 566.79 888.91 571.71 879.7 576.94 870.92 582.16 862.53 587.43 854.69 593.12 847.14 598.93 839.81 604.91 832.89 611.36 826.04 618.02 819.2 624.87 812.6 632.18 805.86 639.65 798.94 647.21 792.12 655.11 785.02 662.98 777.6 670.7 770.21 678.5 762.46 685.94 754.34 692.88 746.2 699.57 737.68 705.5 728.77 710.51 719.86 714.93 710.57 718.21 700.94 720.23 691.3 721.4 681.57 721.19 671.79 719.65 662.03 717.29 652.26 713.7 642.52 708.98 632.83 703.66 623.22 697.4 613.73 690.37 604.34 683.02 595.11 675.11 586.11 666.79 577.24 658.44 568.64 649.88 560.36 641.2 552.26 632.74 544.51 624.28 537.19 615.91 530.04 607.88 523.33 599.97 517.09 592.21 511.02 584.84 505.42 577.58 500.28 570.44 495.26 563.64 490.67 556.9 486.5 550.18 482.34 543.72 478.53 537.21 475.04 530.6 471.44 524.18 468.07 517.59 464.93 510.81 461.55 504.13 458.33 497.19 455.25 490 451.87 482.84 448.6 475.38 445.49 467.6 442.08 459.84 438.85 451.74 435.85 443.32 432.66 434.89 429.78 426.13 427.29 417.04 424.78 407.95 422.78 398.54 421.36 388.83 420.11 379.13 419.59 369.36 419.79 359.58 420.29 349.81 421.57 340.04 423.59 330.32 425.93 320.62 428.99 310.98 432.72 301.45 436.7 291.97 441.28 282.62 446.37 273.45 451.58 264.35 457.22 255.46 463.21 246.82 469.15 238.28 475.35 230.04 481.76 222.13 487.99 214.35 494.36 206.94 500.84 199.94 507.08 193.1 513.4 186.7 519.81 180.77 525.95 175.01 532.21 169.74 538.57 164.99 544.71 160.39 551 156.31 557.47 152.74 563.78 149.29 570.3 146.33 577.07 143.87 583.72 141.44 590.66 139.45 597.87 137.89 605.03 136.26 612.49 135 620.26 134.07 628 132.97 636.05 132.14 644.41 131.56 652.75 130.71 661.4 130.06 670.36 129.59 679.31 128.79 688.57 128.14 698.14 127.67" stroke-dasharray="4 6" transform="rotate(0, 711, 400)" opacity="0.58"></path><path d="M702.99 139.07C712.3 138.28 721.73 137.7 731.28 137.33 740.84 136.73 750.55 136.41 760.37 136.39 770.23 136.24 780.24 136.47 790.37 137.09 800.57 137.69 810.89 138.76 821.31 140.3 831.78 141.93 842.32 144.08 852.86 146.75 863.38 149.58 873.82 152.96 884.08 156.88 894.18 160.98 903.97 165.63 913.29 170.79 922.24 176.15 930.54 182 938.05 188.31 944.95 194.8 950.88 201.73 955.69 209.03 959.75 216.49 962.61 224.29 964.23 232.4 965.13 240.62 964.87 249.12 963.54 257.83 961.81 266.63 959.32 275.63 956.26 284.77 953.4 293.97 950.45 303.3 947.66 312.71 945.79 322.16 944.54 331.68 944.14 341.23 945.16 350.81 947.26 360.4 950.45 369.96 955.09 379.54 960.66 389.09 966.95 398.56 974.08 408.03 981.18 417.19 987.87 426.03 994.41 434.85 999.91 443.34 1004.1 451.47 1007.34 459.59 1008.9 467.34 1008.72 474.73 1007.25 482.09 1004.02 489.1 999.18 495.73 993.19 502.36 985.84 508.64 977.38 514.57 968.24 520.55 958.36 526.23 947.99 531.62 937.47 537.11 926.79 542.39 916.14 547.48 905.74 552.76 895.55 557.94 885.67 563.04 876.24 568.44 867.16 573.86 858.44 579.33 850.18 585.18 842.21 591.16 834.48 597.27 827.14 603.81 819.92 610.52 812.76 617.36 805.85 624.61 798.89 631.97 791.82 639.37 784.89 647.03 777.75 654.62 770.39 662.03 763.08 669.47 755.48 676.55 747.58 683.11 739.68 689.41 731.46 694.99 722.93 699.7 714.39 703.85 705.52 706.93 696.36 708.83 687.2 709.96 677.98 709.81 668.73 708.41 659.51 706.26 650.29 702.95 641.14 698.58 632.03 693.64 623.02 687.81 614.15 681.23 605.37 674.32 596.77 666.84 588.42 658.94 580.18 650.98 572.21 642.75 564.58 634.38 557.09 626.15 549.96 617.89 543.24 609.65 536.66 601.7 530.5 593.83 524.79 586.06 519.2 578.63 514.04 571.29 509.31 564.06 504.65 557.14 500.37 550.26 496.48 543.42 492.55 536.83 488.93 530.21 485.6 523.52 482.12 517.01 478.84 510.38 475.76 503.6 472.43 496.92 469.23 490.04 466.16 482.93 462.79 475.88 459.52 468.57 456.39 460.99 452.99 453.43 449.74 445.57 446.72 437.44 443.53 429.3 440.63 420.86 438.11 412.14 435.58 403.41 433.53 394.4 432.05 385.12 430.75 375.84 430.15 366.52 430.27 357.2 430.67 347.89 431.83 338.59 433.72 329.35 435.92 320.14 438.84 311 442.41 301.98 446.24 293 450.66 284.17 455.61 275.52 460.68 266.94 466.19 258.57 472.06 250.47 477.92 242.46 484.04 234.73 490.39 227.34 496.59 220.08 502.95 213.17 509.42 206.67 515.68 200.3 522.03 194.36 528.46 188.88 534.65 183.54 540.93 178.66 547.31 174.28 553.46 170.02 559.75 166.24 566.19 162.95 572.45 159.75 578.9 157 585.56 154.71 592.09 152.44 598.87 150.57 605.9 149.1 612.85 147.56 620.09 146.34 627.61 145.44 635.08 144.37 642.86 143.55 650.94 142.96 658.99 142.12 667.35 141.46 676.03 140.98 684.69 140.18 693.68 139.54 702.99 139.07" stroke-dasharray="2 2" transform="rotate(4.04, 711, 400)" opacity="0.65"></path><path d="M708.32 150.46C717.37 149.69 726.56 149.12 735.86 148.76 745.18 148.17 754.63 147.85 764.19 147.82 773.79 147.65 783.52 147.84 793.34 148.4 803.2 148.92 813.15 149.88 823.14 151.28 833.14 152.75 843.14 154.7 853.08 157.15 862.94 159.72 872.65 162.81 882.1 166.41 891.34 170.17 900.2 174.45 908.53 179.21 916.47 184.15 923.73 189.57 930.19 195.42 936.07 201.45 941.01 207.89 944.91 214.71 948.13 221.66 950.28 228.97 951.31 236.58 951.76 244.3 951.22 252.29 949.77 260.51 948.06 268.81 945.74 277.32 942.99 285.97 940.53 294.69 938.05 303.54 935.78 312.48 934.4 321.46 933.63 330.52 933.63 339.61 934.93 348.73 937.19 357.86 940.42 366.98 944.95 376.11 950.29 385.21 956.25 394.24 962.98 403.28 969.65 412.02 975.96 420.46 982.17 428.89 987.44 437 991.55 444.78 994.84 452.55 996.63 459.99 996.84 467.1 995.9 474.19 993.34 480.96 989.27 487.4 984.13 493.85 977.68 500 970.12 505.84 961.85 511.75 952.8 517.39 943.17 522.8 933.29 528.33 923.14 533.68 912.9 538.88 902.77 544.28 892.74 549.6 882.91 554.87 873.42 560.42 864.19 566 855.25 571.63 846.7 577.61 838.42 583.7 830.38 589.9 822.67 596.48 815.13 603.18 807.69 609.99 800.49 617.13 793.3 624.34 786.08 631.53 779 638.94 771.8 646.24 764.44 653.32 757.15 660.4 749.66 667.1 741.93 673.29 734.23 679.22 726.27 684.46 718.06 688.86 709.85 692.75 701.38 695.65 692.66 697.44 683.95 698.53 675.21 698.42 666.49 697.15 657.79 695.2 649.12 692.16 640.54 688.13 632.01 683.57 623.59 678.15 615.34 672 607.17 665.53 599.19 658.5 591.46 651.02 583.84 643.45 576.5 635.59 569.48 627.54 562.59 619.59 556.04 611.56 549.88 603.51 543.84 595.69 538.19 587.9 532.95 580.19 527.79 572.76 523.03 565.4 518.66 558.12 514.32 551.12 510.32 544.16 506.65 537.24 502.92 530.55 499.45 523.84 496.23 517.09 492.84 510.52 489.63 503.84 486.59 497.06 483.28 490.38 480.09 483.54 477.02 476.52 473.65 469.56 470.38 462.38 467.23 454.98 463.82 447.6 460.57 439.97 457.54 432.1 454.34 424.23 451.44 416.1 448.89 407.73 446.35 399.35 444.28 390.72 442.75 381.85 441.4 372.99 440.73 364.11 440.76 355.24 441.06 346.39 442.1 337.56 443.85 328.81 445.92 320.08 448.67 311.44 452.08 302.92 455.74 294.45 459.99 286.13 464.76 278.01 469.68 269.94 475.03 262.1 480.76 254.52 486.5 247.03 492.53 239.82 498.78 232.94 504.94 226.17 511.26 219.76 517.7 213.73 523.97 207.82 530.33 202.32 536.78 197.26 543.01 192.32 549.32 187.81 555.72 183.77 561.91 179.83 568.21 176.33 574.64 173.3 580.89 170.32 587.3 167.77 593.89 165.64 600.35 163.51 607.02 161.75 613.92 160.36 620.73 158.88 627.79 157.71 635.12 156.83 642.39 155.78 649.94 154.96 657.78 154.37 665.59 153.52 673.71 152.86 682.13 152.36 690.53 151.57 699.26 150.94 708.32 150.46" stroke-dasharray="5 1" transform="rotate(8.08, 711, 400)" opacity="0.27"></path><path d="M713.8 161.86C722.59 161.1 731.51 160.55 740.53 160.19 749.56 159.62 758.72 159.31 767.96 159.26 777.23 159.08 786.59 159.24 796.02 159.74 805.45 160.2 814.93 161.06 824.39 162.34 833.83 163.66 843.21 165.43 852.45 167.67 861.58 170 870.48 172.82 879.07 176.12 887.42 179.55 895.32 183.48 902.67 187.86 909.62 192.39 915.89 197.39 921.36 202.8 926.31 208.37 930.36 214.34 933.45 220.67 935.97 227.14 937.52 233.95 938.09 241.05 938.21 248.27 937.49 255.75 936.02 263.47 934.41 271.26 932.32 279.27 929.92 287.43 927.87 295.65 925.86 304.01 924.09 312.47 923.18 320.97 922.84 329.55 923.21 338.17 924.76 346.82 927.15 355.5 930.4 364.16 934.81 372.84 939.92 381.5 945.56 390.1 951.89 398.71 958.15 407.04 964.08 415.1 969.95 423.14 974.99 430.9 978.99 438.36 982.3 445.81 984.26 452.96 984.8 459.81 984.33 466.67 982.38 473.23 979.03 479.5 974.69 485.8 969.09 491.84 962.41 497.62 955.03 503.47 946.82 509.1 937.98 514.54 928.82 520.11 919.29 525.53 909.56 530.83 899.84 536.33 890.1 541.77 880.46 547.18 871.05 552.86 861.81 558.56 852.8 564.31 844.11 570.38 835.63 576.53 827.37 582.77 819.41 589.34 811.61 596 803.94 602.72 796.5 609.72 789.11 616.74 781.74 623.71 774.52 630.84 767.24 637.82 759.88 644.56 752.59 651.28 745.16 657.61 737.59 663.43 730.04 669 722.3 673.9 714.38 678.01 706.46 681.65 698.35 684.36 690.05 686.04 681.75 687.09 673.48 687.02 665.26 685.88 657.06 684.11 648.92 681.34 640.91 677.63 632.93 673.42 625.09 668.4 617.44 662.68 609.85 656.65 602.47 650.05 595.35 643.01 588.31 635.85 581.55 628.38 575.12 620.68 568.78 613.04 562.77 605.28 557.13 597.46 551.57 589.81 546.38 582.17 541.56 574.56 536.79 567.18 532.38 559.85 528.31 552.58 524.24 545.55 520.46 538.55 516.98 531.59 513.4 524.84 510.05 518.08 506.92 511.3 503.59 504.68 500.42 497.99 497.39 491.21 494.1 484.54 490.9 477.75 487.81 470.81 484.44 463.93 481.16 456.88 478 449.64 474.59 442.43 471.34 435.02 468.3 427.4 465.11 419.78 462.2 411.95 459.65 403.91 457.1 395.86 455.01 387.6 453.45 379.14 452.06 370.68 451.33 362.23 451.26 353.81 451.48 345.4 452.4 337.05 454 328.77 455.92 320.52 458.5 312.37 461.72 304.36 465.2 296.39 469.26 288.58 473.84 280.97 478.58 273.42 483.76 266.09 489.31 259.02 494.91 252.04 500.81 245.33 506.95 238.95 513.03 232.66 519.28 226.71 525.68 221.14 531.92 215.67 538.28 210.59 544.72 205.92 550.98 201.35 557.31 197.19 563.73 193.47 569.96 189.82 576.28 186.59 582.71 183.78 588.98 181.01 595.38 178.63 601.93 176.64 608.35 174.63 614.95 172.97 621.76 171.65 628.46 170.23 635.4 169.09 642.57 168.23 649.68 167.19 657.05 166.37 664.69 165.77 672.29 164.93 680.18 164.25 688.37 163.75 696.53 162.96 705.01 162.33 713.8 161.86" stroke-dasharray="6 8" transform="rotate(12.12, 711, 400)" opacity="0.47"></path><path d="M719.12 173.25C727.64 172.52 736.26 171.98 744.96 171.63 753.67 171.08 762.47 170.77 771.34 170.72 780.21 170.54 789.14 170.67 798.09 171.12 807.03 171.52 815.95 172.3 824.81 173.47 833.61 174.65 842.29 176.26 850.78 178.3 859.13 180.41 867.19 182.98 874.89 186 882.33 189.13 889.3 192.71 895.69 196.73 901.71 200.88 907.05 205.47 911.62 210.45 915.74 215.58 919.01 221.08 921.42 226.95 923.35 232.93 924.43 239.25 924.66 245.86 924.57 252.57 923.77 259.55 922.36 266.76 920.91 274.05 919.1 281.54 917.07 289.2 915.44 296.92 913.9 304.79 912.61 312.76 912.14 320.77 912.19 328.87 912.88 337.03 914.64 345.2 917.15 353.42 920.39 361.63 924.66 369.86 929.54 378.08 934.86 386.26 940.8 394.45 946.67 402.39 952.23 410.07 957.76 417.75 962.56 425.18 966.43 432.33 969.72 439.48 971.81 446.37 972.63 453 972.57 459.63 971.16 466.01 968.46 472.14 964.86 478.31 960.08 484.25 954.25 489.98 947.73 495.79 940.38 501.41 932.36 506.88 923.96 512.47 915.12 517.96 906 523.35 896.79 528.92 887.48 534.46 878.16 539.98 868.97 545.74 859.87 551.53 850.93 557.36 842.22 563.46 833.68 569.63 825.32 575.87 817.21 582.38 809.25 588.95 801.43 595.54 793.82 602.36 786.28 609.16 778.8 615.87 771.46 622.71 764.12 629.37 756.76 635.76 749.47 642.11 742.1 648.06 734.65 653.52 727.23 658.73 719.69 663.31 712.03 667.14 704.38 670.54 696.59 673.07 688.68 674.65 680.77 675.65 672.93 675.62 665.19 674.59 657.45 673.01 649.83 670.48 642.35 667.08 634.89 663.21 627.6 658.58 620.51 653.28 613.47 647.67 606.66 641.51 600.1 634.91 593.61 628.17 587.39 621.09 581.49 613.77 575.66 606.47 570.14 599.01 564.96 591.46 559.83 584.04 555.04 576.58 550.59 569.13 546.15 561.86 542.02 554.61 538.21 547.4 534.35 540.39 530.76 533.41 527.42 526.46 523.95 519.69 520.69 512.92 517.6 506.13 514.32 499.5 511.16 492.81 508.13 486.06 504.84 479.42 501.64 472.68 498.53 465.82 495.14 459.04 491.85 452.11 488.68 445.03 485.28 437.99 482.04 430.78 478.99 423.4 475.82 416.03 472.93 408.48 470.38 400.75 467.84 393.03 465.74 385.13 464.15 377.06 462.72 369 461.94 360.96 461.79 352.98 461.91 345.01 462.71 337.11 464.17 329.31 465.93 321.53 468.34 313.87 471.36 306.35 474.65 298.87 478.5 291.56 482.86 284.45 487.4 277.4 492.38 270.57 497.73 264 503.16 257.5 508.9 251.27 514.9 245.36 520.86 239.54 527.01 234.04 533.32 228.89 539.52 223.84 545.84 219.15 552.26 214.85 558.51 210.63 564.86 206.79 571.28 203.35 577.53 199.98 583.87 196.98 590.31 194.38 596.59 191.8 602.99 189.57 609.52 187.71 615.92 185.81 622.48 184.23 629.21 182.96 635.84 181.59 642.68 180.48 649.72 179.63 656.7 178.6 663.92 177.79 671.38 177.17 678.8 176.33 686.49 175.65 694.44 175.13 702.38 174.35 710.61 173.72 719.12 173.25" stroke-dasharray="10 5" transform="rotate(16.16, 711, 400)" opacity="0.67"></path><path d="M723.96 184.65C732.18 183.93 740.47 183.41 748.82 183.08 757.17 182.55 765.57 182.25 774 182.2 782.43 182.02 790.87 182.13 799.27 182.54 807.65 182.89 815.97 183.6 824.16 184.66 832.28 185.73 840.22 187.19 847.92 189.04 855.46 190.96 862.68 193.3 869.49 196.05 876.06 198.89 882.13 202.16 887.63 205.84 895.03 211.73 905.75 225.63 908.91 233.57 910.38 239.08 911.11 244.91 911.12 251.04 910.91 257.25 910.12 263.73 908.83 270.44 907.6 277.22 906.11 284.22 904.47 291.38 903.25 298.6 902.16 305.96 901.32 313.45 901.25 320.97 901.66 328.59 902.64 336.27 904.58 343.98 907.17 351.73 910.38 359.5 914.51 367.28 919.15 375.07 924.16 382.84 929.73 390.61 935.21 398.17 940.41 405.5 945.6 412.83 950.14 419.93 953.87 426.8 957.12 433.67 959.29 440.32 960.34 446.73 960.63 453.16 959.69 459.38 957.58 465.38 954.67 471.43 950.64 477.29 945.62 482.97 939.94 488.73 933.44 494.34 926.24 499.83 918.64 505.44 910.55 510.97 902.1 516.42 893.5 522.05 884.71 527.65 875.83 533.24 866.99 539.05 858.17 544.88 849.42 550.73 840.83 556.83 832.36 562.97 824.03 569.15 815.89 575.56 807.88 582 800.01 588.43 792.3 595.04 784.69 601.59 777.17 608.03 769.76 614.54 762.39 620.86 755.04 626.9 747.77 632.88 740.47 638.47 733.14 643.57 725.85 648.44 718.5 652.7 711.08 656.26 703.67 659.42 696.19 661.78 688.64 663.25 681.1 664.21 673.66 664.21 666.36 663.3 659.06 661.88 651.91 659.58 644.92 656.47 637.95 652.94 631.17 648.68 624.61 643.79 618.07 638.6 611.77 632.87 605.73 626.7 599.73 620.38 594.01 613.72 588.58 606.8 583.19 599.86 578.1 592.73 573.33 585.49 568.57 578.33 564.12 571.11 559.97 563.85 555.81 556.75 551.92 549.63 548.31 542.54 544.62 535.61 541.16 528.69 537.92 521.79 534.54 515.05 531.32 508.31 528.26 501.56 525 494.94 521.84 488.29 518.79 481.6 515.5 475 512.28 468.33 509.14 461.58 505.76 454.89 502.46 448.09 499.28 441.18 495.89 434.3 492.66 427.29 489.63 420.15 486.49 413.02 483.61 405.74 481.08 398.33 478.55 390.92 476.45 383.36 474.85 375.68 473.4 368 472.56 360.37 472.33 352.82 472.36 345.28 473.04 337.82 474.35 330.48 475.95 323.16 478.18 315.97 481 308.93 484.08 301.93 487.71 295.1 491.83 288.48 496.15 281.91 500.91 275.56 506.04 269.46 511.27 263.43 516.82 257.67 522.64 252.21 528.45 246.82 534.47 241.74 540.66 237 546.77 232.33 553.02 228 559.37 224.04 565.6 220.14 571.92 216.6 578.32 213.43 584.58 210.29 590.92 207.51 597.35 205.1 603.64 202.68 610.03 200.59 616.53 198.84 622.92 197.03 629.44 195.52 636.11 194.3 642.69 192.97 649.44 191.88 656.37 191.03 663.24 190.01 670.31 189.19 677.6 188.57 684.85 187.72 692.34 187.03 700.06 186.51 707.77 185.74 715.74 185.11 723.96 184.65" stroke-dasharray="7 4" transform="rotate(20.200000000000003, 711, 400)" opacity="0.44"></path><path d="M728.02 196.04C735.93 195.35 743.86 194.84 751.82 194.53 759.77 194.02 767.74 193.74 775.68 193.69 783.62 193.51 791.52 193.61 799.34 193.99 807.12 194.3 814.79 194.94 822.28 195.91 829.7 196.88 836.88 198.2 843.78 199.9 850.53 201.63 856.93 203.75 862.89 206.26 871.25 210.33 884.8 220.54 889.77 226.64 893.59 233.25 897.41 248.28 897.54 256.62 897.31 262.35 896.6 268.34 895.5 274.56 894.53 280.84 893.37 287.34 892.13 294.01 891.31 300.73 890.65 307.6 890.24 314.6 890.53 321.64 891.26 328.78 892.48 336 894.57 343.23 897.21 350.53 900.38 357.87 904.35 365.21 908.75 372.58 913.46 379.94 918.67 387.31 923.78 394.49 928.62 401.49 933.48 408.48 937.76 415.28 941.33 421.87 944.5 428.48 946.72 434.89 947.94 441.11 948.52 447.34 948 453.4 946.41 459.28 944.11 465.21 940.79 470.98 936.52 476.62 931.65 482.32 925.97 487.92 919.59 493.41 912.8 499.02 905.49 504.57 897.76 510.06 889.84 515.7 881.66 521.33 873.31 526.95 864.94 532.75 856.51 538.58 848.09 544.41 839.75 550.46 831.48 556.53 823.3 562.6 815.25 568.87 807.31 575.14 799.48 581.36 791.79 587.73 784.19 594.01 776.68 600.15 769.28 606.33 761.93 612.31 754.64 617.99 747.42 623.6 740.21 628.82 733.02 633.57 725.86 638.1 718.69 642.05 711.51 645.35 704.34 648.29 697.14 650.48 689.93 651.86 682.72 652.77 675.66 652.8 668.76 651.99 661.87 650.73 655.15 648.65 648.62 645.82 642.1 642.6 635.78 638.7 629.68 634.2 623.61 629.42 617.77 624.12 612.19 618.38 606.62 612.49 601.33 606.25 596.31 599.73 591.31 593.18 586.58 586.42 582.15 579.51 577.7 572.66 573.53 565.7 569.63 558.7 565.69 551.8 561.99 544.87 558.52 537.94 554.96 531.14 551.6 524.33 548.42 517.54 545.09 510.88 541.9 504.21 538.85 497.54 535.59 490.98 532.42 484.4 529.35 477.79 526.04 471.27 522.8 464.69 519.65 458.06 516.26 451.49 512.96 444.83 509.79 438.09 506.42 431.38 503.21 424.58 500.21 417.67 497.1 410.78 494.26 403.78 491.74 396.67 489.25 389.56 487.16 382.35 485.54 375.04 484.08 367.73 483.19 360.5 482.89 353.37 482.84 346.24 483.4 339.21 484.56 332.32 486 325.44 488.04 318.7 490.65 312.13 493.51 305.58 496.9 299.22 500.78 293.07 504.86 286.95 509.37 281.06 514.26 275.42 519.26 269.83 524.58 264.5 530.18 259.46 535.81 254.48 541.66 249.79 547.69 245.43 553.68 241.12 559.81 237.13 566.06 233.47 572.22 229.87 578.48 226.59 584.82 223.66 591.05 220.75 597.37 218.16 603.76 215.91 610.03 213.64 616.4 211.67 622.86 210.01 629.22 208.29 635.7 206.84 642.3 205.65 648.82 204.35 655.48 203.28 662.3 202.43 669.06 201.42 675.99 200.6 683.11 199.95 690.19 199.11 697.47 198.42 704.96 197.89 712.43 197.12 720.12 196.5 728.02 196.04" stroke-dasharray="3 4" transform="rotate(24.24, 711, 400)" opacity="0.24"></path><path d="M731.08 207.44C738.64 206.77 746.19 206.28 753.72 205.98 761.25 205.5 768.74 205.23 776.17 205.19 783.58 205.02 790.91 205.11 798.12 205.47 805.28 205.75 812.28 206.34 819.07 207.23 825.78 208.1 832.22 209.31 838.35 210.85 847.14 213.39 862.33 220.33 868.53 224.74 873.79 229.61 881 241.21 882.92 247.88 883.98 254.97 883.55 270.65 882.41 279.15 881.72 284.95 880.9 290.96 880.06 297.15 879.64 303.38 879.37 309.77 879.34 316.3 879.97 322.85 880.97 329.52 882.41 336.28 884.6 343.06 887.27 349.91 890.38 356.82 894.19 363.73 898.36 370.68 902.76 377.65 907.61 384.62 912.36 391.45 916.86 398.11 921.39 404.77 925.41 411.28 928.79 417.61 931.86 423.96 934.1 430.14 935.45 436.17 936.26 442.21 936.09 448.12 934.96 453.88 933.22 459.68 930.53 465.37 926.96 470.94 922.84 476.58 917.95 482.13 912.37 487.61 906.39 493.19 899.86 498.72 892.9 504.21 885.7 509.84 878.18 515.46 870.45 521.06 862.64 526.82 854.7 532.59 846.71 538.37 838.75 544.31 830.78 550.26 822.87 556.19 815.04 562.28 807.28 568.34 799.6 574.33 792.03 580.42 784.53 586.4 777.13 592.23 769.81 598.07 762.56 603.69 755.38 609.02 748.25 614.26 741.18 619.12 734.14 623.53 727.15 627.72 720.17 631.38 713.22 634.43 706.29 637.15 699.37 639.18 692.47 640.46 685.58 641.33 678.87 641.39 672.35 640.67 665.82 639.55 659.49 637.68 653.37 635.11 647.25 632.2 641.35 628.64 635.67 624.52 630 620.14 624.56 615.26 619.38 609.95 614.19 604.48 609.26 598.67 604.59 592.57 599.92 586.41 595.5 580.04 591.34 573.49 587.15 566.97 583.2 560.33 579.49 553.61 575.71 546.96 572.15 540.27 568.79 533.54 565.32 526.92 562.02 520.28 558.87 513.64 555.57 507.11 552.39 500.56 549.32 494.01 546.05 487.56 542.87 481.09 539.77 474.6 536.45 468.19 533.2 461.73 530.03 455.24 526.65 448.8 523.36 442.31 520.2 435.75 516.87 429.23 513.69 422.64 510.72 415.97 507.66 409.32 504.87 402.59 502.38 395.78 499.93 388.98 497.86 382.1 496.24 375.16 494.77 368.21 493.85 361.37 493.48 354.64 493.34 347.91 493.78 341.3 494.8 334.84 496.08 328.38 497.93 322.08 500.32 315.96 502.95 309.85 506.1 303.93 509.72 298.22 513.54 292.54 517.78 287.08 522.4 281.86 527.14 276.69 532.22 271.76 537.57 267.12 542.98 262.52 548.61 258.19 554.44 254.17 560.26 250.19 566.24 246.51 572.34 243.14 578.39 239.8 584.54 236.76 590.79 234.04 596.94 231.33 603.19 228.91 609.51 226.8 615.74 224.66 622.05 222.8 628.44 221.22 634.75 219.57 641.16 218.17 647.67 217.01 654.12 215.74 660.68 214.68 667.36 213.83 674 212.82 680.79 211.99 687.71 211.34 694.62 210.49 701.68 209.8 708.91 209.26 716.12 208.5 723.52 207.89 731.08 207.44" stroke-dasharray="5 8" transform="rotate(28.28, 711, 400)" opacity="0.18"></path><path d="M732.94 218.84C740.13 218.19 747.27 217.73 754.35 217.44 761.43 216.99 768.43 216.74 775.32 216.7 782.2 216.55 788.95 216.63 795.53 216.97 802.07 217.23 808.41 217.77 814.51 218.59 823.39 219.94 839.36 224.2 846.28 227.16 852.48 230.51 862.16 238.94 865.55 244.01 868.13 249.49 870.58 262.05 870.64 269.06 870.37 276.41 868.97 292.34 868.27 300.83 868.22 306.59 868.32 312.51 868.65 318.57 869.56 324.66 870.8 330.87 872.41 337.18 874.68 343.51 877.35 349.93 880.38 356.41 884.03 362.9 887.95 369.45 892.07 376.04 896.57 382.63 900.96 389.1 905.12 395.44 909.34 401.78 913.09 408 916.28 414.08 919.23 420.17 921.45 426.13 922.89 431.97 923.94 440.7 920.94 457.66 916.95 465.94 913.53 471.5 909.38 476.99 904.57 482.42 899.37 487.94 893.63 493.43 887.43 498.88 880.98 504.45 874.18 510 867.11 515.54 859.92 521.22 852.56 526.89 845.09 532.55 837.6 538.35 830.06 544.14 822.52 549.89 815.02 555.76 807.54 561.57 800.13 567.3 792.77 573.1 785.48 578.77 778.26 584.26 771.11 589.75 764.03 595.01 757.02 599.98 750.06 604.85 743.15 609.36 736.32 613.43 729.51 617.31 722.75 620.69 716.05 623.49 709.36 626 702.71 627.88 696.12 629.06 689.52 629.89 683.14 629.97 676.96 629.34 670.78 628.36 664.8 626.68 659.05 624.36 653.28 621.73 647.74 618.51 642.43 614.75 637.11 610.75 632.02 606.27 627.17 601.39 622.31 596.35 617.68 590.96 613.3 585.29 608.89 579.54 604.71 573.56 600.77 567.4 596.77 561.24 593 554.94 589.43 548.55 585.78 542.2 582.31 535.77 579.02 529.3 575.61 522.91 572.34 516.49 569.21 510.04 565.91 503.69 562.73 497.31 559.64 490.93 556.36 484.63 553.16 478.3 550.03 471.97 546.7 465.7 543.45 459.4 540.27 453.08 536.91 446.81 533.65 440.49 530.51 434.14 527.22 427.82 524.1 421.45 521.17 415.03 518.17 408.63 515.43 402.17 512.99 395.67 510.59 389.17 508.55 382.62 506.94 376.03 505.47 369.44 504.51 362.97 504.09 356.63 503.87 350.29 504.2 344.08 505.08 338.03 506.19 331.99 507.85 326.1 510.02 320.4 512.42 314.71 515.32 309.2 518.67 303.91 522.21 298.64 526.17 293.58 530.49 288.77 534.96 283.98 539.75 279.43 544.82 275.15 549.97 270.9 555.36 266.91 560.95 263.2 566.55 259.52 572.33 256.11 578.24 253 584.12 249.9 590.12 247.08 596.22 244.55 602.25 242.01 608.38 239.75 614.58 237.76 620.72 235.73 626.94 233.96 633.22 232.45 639.45 230.86 645.75 229.5 652.14 228.36 658.48 227.12 664.91 226.07 671.44 225.21 677.94 224.21 684.54 223.38 691.26 222.71 697.96 221.86 704.78 221.17 711.73 220.62 718.67 219.88 725.74 219.28 732.94 218.84" stroke-dasharray="5 2" transform="rotate(32.32, 711, 400)" opacity="0.13"></path><path d="M733.49 230.23C740.29 229.61 747.01 229.17 753.62 228.9 760.23 228.48 766.72 228.25 773.07 228.23 779.4 228.09 785.57 228.17 791.54 228.49 800.32 228.99 816.51 231.24 823.78 233.04 830.52 235.14 841.83 240.87 846.28 244.51 852.57 253.32 857.29 269.54 857.47 275.94 857.48 282.66 856.95 297.26 856.78 305.08 857.29 313.12 860.01 329.99 862.48 338.75 864.8 344.64 867.45 350.63 870.39 356.71 873.85 362.79 877.54 368.94 881.37 375.16 885.54 381.37 889.59 387.5 893.42 393.52 897.32 399.55 900.8 405.48 903.8 411.3 907.69 420.01 911.56 436.96 911.33 445.24 910.48 450.76 908.86 456.22 906.51 461.6 903.73 467.05 900.26 472.45 896.17 477.8 891.72 483.23 886.74 488.63 881.3 494 875.6 499.47 869.53 504.92 863.17 510.35 856.66 515.9 849.93 521.43 843.05 526.93 836.11 532.55 829.08 538.13 822 543.66 814.93 549.28 807.84 554.82 800.77 560.26 793.74 565.74 786.74 571.08 779.8 576.23 772.9 581.37 766.05 586.27 759.28 590.87 752.55 595.39 745.87 599.55 739.27 603.3 732.7 606.87 726.18 609.97 719.74 612.54 713.31 614.84 706.94 616.57 700.64 617.67 694.35 618.45 688.27 618.55 682.41 618 676.54 617.14 670.89 615.65 665.45 613.57 660.01 611.2 654.79 608.29 649.78 604.88 644.77 601.25 639.97 597.17 635.4 592.7 630.81 588.08 626.43 583.12 622.27 577.87 618.08 572.54 614.1 566.98 610.32 561.22 606.48 555.44 602.82 549.51 599.35 543.46 595.79 537.44 592.39 531.33 589.13 525.16 585.76 519.04 582.5 512.87 579.37 506.67 576.08 500.54 572.88 494.38 569.77 488.21 566.48 482.1 563.26 475.97 560.12 469.83 556.79 463.74 553.54 457.63 550.38 451.51 547.04 445.43 543.81 439.33 540.71 433.2 537.49 427.1 534.42 420.96 531.55 414.81 528.63 408.66 525.96 402.49 523.58 396.29 521.23 390.09 519.23 383.87 517.64 377.63 516.17 371.39 515.2 365.29 514.71 359.32 514.54 350.45 517.08 333.48 519.76 325.43 523.25 317.58 532.72 302.9 538.57 296.11 542.73 291.68 547.22 287.48 551.99 283.53 556.84 279.6 561.94 275.91 567.25 272.49 572.6 269.08 578.12 265.93 583.79 263.04 589.46 260.16 595.25 257.53 601.15 255.16 607.02 252.78 612.98 250.65 619.01 248.77 625 246.84 631.07 245.15 637.2 243.69 643.29 242.16 649.45 240.83 655.68 239.71 661.87 238.49 668.14 237.44 674.48 236.58 680.79 235.59 687.19 234.75 693.67 234.07 700.13 233.23 706.69 232.53 713.33 231.98 719.96 231.25 726.69 230.67 733.49 230.23" stroke-dasharray="4 3" transform="rotate(36.36, 711, 400)" opacity="0.57"></path><path d="M732.71 241.63C739.1 241.04 745.37 240.62 751.51 240.36 757.64 239.97 763.62 239.77 769.43 239.76 781 239.42 791.77 239.98 801.51 241.45 810.97 242.77 819.19 245.17 825.94 248.63 832.25 252.13 836.99 256.79 840.1 262.52 842.91 268.4 844.34 275.35 844.6 283.25 845.26 291.3 845.46 300.24 845.59 309.91 847.17 319.67 849.43 330.09 852.61 341 854.96 346.47 857.56 352.05 860.39 357.73 863.67 363.41 867.12 369.18 870.67 375.03 874.52 380.88 878.24 386.66 881.75 392.37 885.34 398.09 888.56 403.73 891.35 409.3 896.43 420.46 899.11 431.37 899.2 441.98 897.81 452.74 893.7 463.33 887.18 473.71 879.38 484.38 869.65 494.99 858.52 505.45 846.77 516.28 834.15 527.01 821.09 537.48 807.94 548.2 794.63 558.52 781.43 568.13 768.33 577.64 755.37 586.09 742.72 593.11 736.42 596.38 730.18 599.22 724.02 601.56 717.87 603.68 711.79 605.26 705.79 606.27 696.89 607.06 680.19 605.24 672.36 602.72 662.03 598.26 652.52 591.86 643.87 583.88 635.09 575.33 627.08 565.55 619.83 554.91 612.31 544.14 605.39 532.76 599.04 521.05 592.21 509.48 585.75 497.66 579.66 485.77 572.92 474.08 566.45 462.27 560.32 450.46 553.63 438.79 547.4 427.02 541.87 415.24 539.04 409.37 536.44 403.48 534.13 397.59 531.85 391.7 529.91 385.81 528.34 379.91 526.39 371.15 525.08 354.35 525.74 346.34 527.56 335.78 531.26 325.9 536.65 316.81 542.75 307.75 550.33 299.52 559.09 292.21 568.24 284.94 578.32 278.58 589.06 273.22 599.87 267.82 611.19 263.34 622.83 259.8 634.38 256.07 646.24 253.15 658.3 251.04 670.26 248.52 682.49 246.64 694.9 245.42 701.1 244.58 707.36 243.89 713.66 243.34 719.96 242.63 726.32 242.05 732.71 241.63" stroke-dasharray="8 6" transform="rotate(40.400000000000006, 711, 400)" opacity="0.77"></path><path d="M730.63 253.02C742.56 251.76 753.9 251.19 764.5 251.29 775.03 251 784.71 251.55 793.34 252.94 801.74 254.16 808.95 256.37 814.81 259.54 820.36 262.72 824.52 266.95 827.3 272.16 829.94 277.48 831.47 283.79 832.07 290.98 833.17 298.29 833.93 306.44 834.69 315.31 836.77 324.24 839.42 333.83 842.81 343.94 847.9 354.07 853.73 364.68 859.97 375.66 867.24 386.63 873.72 397.46 878.93 408.06 883.72 418.69 886.43 429.15 886.88 439.4 886.13 449.77 882.97 460.02 877.62 470.11 871.14 480.43 862.82 490.68 853.11 500.78 842.75 511.16 831.44 521.39 819.58 531.31 807.53 541.4 795.2 551.04 782.86 559.96 770.55 568.73 758.31 576.48 746.32 582.88 734.37 588.68 722.63 592.79 711.24 594.88 699.84 596 689.26 594.91 679.51 591.83 669.69 587.88 660.65 582.14 652.38 574.92 643.97 567.17 636.24 558.24 629.17 548.45 621.83 538.49 615.01 527.9 608.67 516.93 601.88 506.02 595.42 494.83 589.3 483.54 582.6 472.38 576.17 461.11 570.11 449.84 563.57 438.67 557.5 427.44 552.13 416.24 546.66 405.08 542.19 393.9 539.03 382.81 536.32 371.71 535.37 361.2 536.14 351.35 537.64 341.5 540.89 332.32 545.72 323.92 551.22 315.52 558.13 307.9 566.18 301.15 574.65 294.4 584.04 288.5 594.11 283.51 604.32 278.44 615.06 274.22 626.13 270.85 637.19 267.28 648.54 264.44 660.07 262.35 671.55 259.87 683.23 258 695.02 256.75 706.79 254.96 718.71 253.7 730.63 253.02" stroke-dasharray="3 9" transform="rotate(44.44, 711, 400)" opacity="0.27"></path><path d="M727.39 264.42C738.44 263.23 748.83 262.71 758.45 262.83 768 262.59 776.68 263.14 784.33 264.45 791.82 265.59 798.19 267.63 803.34 270.55 810.18 275.37 818.12 289.7 819.95 299.1 821.48 305.72 822.77 313.14 824.09 321.25 826.58 329.41 829.54 338.22 833.06 347.56 838.02 356.91 843.52 366.76 849.27 377.03 855.9 387.29 861.8 397.5 866.55 407.54 871.03 417.62 873.7 427.61 874.42 437.43 874.18 447.36 871.82 457.22 867.51 466.93 862.22 476.83 855.22 486.65 846.86 496.29 837.89 506.15 827.92 515.82 817.29 525.13 806.44 534.55 795.19 543.49 783.81 551.69 772.42 559.73 761 566.8 749.74 572.6 738.52 577.87 727.45 581.59 716.68 583.48 705.9 584.54 695.87 583.62 686.6 580.9 677.28 577.42 668.64 572.3 660.7 565.82 652.61 558.85 645.11 550.76 638.19 541.82 631 532.69 624.26 522.92 617.93 512.73 611.2 502.55 604.76 492.06 598.64 481.43 592.03 470.89 585.69 460.22 579.73 449.54 573.38 438.95 567.51 428.3 562.33 417.72 557.09 407.17 552.8 396.63 549.73 386.22 547.07 375.81 546.03 365.99 546.58 356.83 547.78 347.66 550.6 339.15 554.88 331.37 559.77 323.58 565.99 316.54 573.31 310.29 581.05 304.02 589.7 298.53 599.02 293.86 608.54 289.1 618.59 285.1 629 281.88 639.45 278.45 650.19 275.7 661.08 273.63 671.98 271.2 683.03 269.34 694.11 268.07 705.2 266.32 716.34 265.08 727.39 264.42" stroke-dasharray="10 11" transform="rotate(48.48, 711, 400)" opacity="0.08"></path><path d="M723.18 275.81C733.33 274.7 742.81 274.24 751.5 274.38 760.13 274.2 767.91 274.74 774.73 275.99 784.27 278.02 798 286.05 802.3 292.12 804.96 296.46 806.9 301.64 808.29 307.59 810.21 313.58 811.98 320.32 813.78 327.72 816.6 335.15 819.78 343.21 823.36 351.81 828.14 360.41 833.3 369.53 838.58 379.1 844.59 388.66 849.91 398.22 854.22 407.7 858.35 417.2 860.93 426.67 861.83 436.02 861.99 445.46 860.3 454.84 856.89 464.1 852.66 473.5 846.86 482.81 839.77 491.93 832.12 501.2 823.46 510.24 814.09 518.91 804.46 527.62 794.36 535.84 784.02 543.34 773.63 550.66 763.12 557.06 752.67 562.28 742.24 567.03 731.9 570.38 721.78 572.09 711.65 573.09 702.18 572.31 693.38 569.92 684.52 566.88 676.27 562.36 668.62 556.58 660.83 550.36 653.55 543.09 646.76 535 639.72 526.71 633.06 517.77 626.77 508.4 620.13 499 613.75 489.26 607.67 479.35 601.19 469.49 594.99 459.49 589.18 449.46 583.06 439.5 577.42 429.49 572.46 419.56 567.48 409.65 563.38 399.78 560.43 390.05 557.84 380.33 556.74 371.19 557.08 362.69 558 354.17 560.39 346.29 564.13 339.1 568.42 331.89 573.96 325.36 580.53 319.57 587.5 313.74 595.36 308.62 603.89 304.25 612.63 299.77 621.93 295.97 631.58 292.88 641.31 289.59 651.34 286.91 661.51 284.86 671.71 282.49 682.04 280.65 692.36 279.37 702.69 277.67 713.02 276.46 723.18 275.81" stroke-dasharray="1 6" transform="rotate(52.52, 711, 400)" opacity="0.93"></path><path d="M718.24 287.21C727.51 286.18 736.1 285.76 743.93 285.93 751.73 285.8 758.71 286.34 764.82 287.53 773.43 289.44 786.12 296.83 790.39 302.36 794.25 308.64 800.48 324.85 803.75 334.64 806.81 341.4 810.13 348.75 813.71 356.64 818.28 364.53 823.07 372.94 827.88 381.8 833.3 390.66 838.07 399.58 841.94 408.46 845.71 417.36 848.15 426.26 849.16 435.08 849.6 443.97 848.46 452.82 845.8 461.55 842.49 470.38 837.76 479.12 831.83 487.64 825.42 496.26 818.02 504.64 809.87 512.62 801.48 520.6 792.54 528.09 783.28 534.88 773.94 541.49 764.4 547.24 754.83 551.9 745.25 556.16 735.68 559.16 726.24 560.69 716.79 561.63 707.89 560.99 699.56 558.9 691.18 556.27 683.31 552.3 675.94 547.19 668.46 541.7 661.39 535.22 654.75 527.96 647.88 520.51 641.34 512.42 635.13 503.89 628.61 495.3 622.34 486.36 616.38 477.22 610.08 468.1 604.07 458.82 598.46 449.5 592.61 440.22 587.25 430.9 582.54 421.64 577.83 412.41 573.95 403.22 571.13 394.19 568.63 385.16 567.47 376.68 567.63 368.82 568.29 360.93 570.28 353.65 573.5 347 577.2 340.34 582.05 334.29 587.87 328.93 594.07 323.51 601.1 318.72 608.79 314.62 616.71 310.4 625.17 306.79 633.99 303.83 642.93 300.67 652.16 298.07 661.53 296.05 670.95 293.74 680.47 291.93 689.97 290.65 699.49 289 708.96 287.83 718.24 287.21" stroke-dasharray="7 6" transform="rotate(56.56, 711, 400)" opacity="0.40"></path><path d="M712.86 298.6C721.25 297.66 729.01 297.29 736.06 297.47 746.23 297.67 762.74 300.89 769.05 304.02 774.68 307.7 783.11 318.43 786.44 325.44 789.03 330.33 791.52 335.86 793.99 341.98 797.21 348.09 800.58 354.78 804.1 361.98 808.41 369.18 812.83 376.89 817.18 385.06 822.04 393.22 826.27 401.47 829.7 409.72 833.1 417.99 835.37 426.28 836.41 434.51 837.05 442.8 836.32 451.06 834.3 459.19 831.76 467.4 827.97 475.5 823.08 483.37 817.79 491.3 811.55 498.97 804.58 506.24 797.38 513.47 789.59 520.23 781.42 526.32 773.16 532.23 764.62 537.35 755.95 541.48 747.28 545.27 738.52 547.93 729.79 549.3 721.06 550.17 712.76 549.64 704.92 547.84 697.04 545.59 689.56 542.14 682.51 537.67 675.34 532.86 668.53 527.14 662.06 520.7 655.42 514.07 649.04 506.83 642.96 499.15 636.63 491.39 630.54 483.28 624.75 474.94 618.7 466.61 612.94 458.1 607.57 449.53 602.04 440.98 596.98 432.38 592.55 423.84 588.14 415.32 584.51 406.84 581.83 398.5 579.43 390.17 578.25 382.36 578.25 375.11 578.66 367.85 580.28 361.13 583 355.01 586.14 348.86 590.32 343.27 595.4 338.3 600.81 333.26 607.01 328.8 613.84 324.94 620.9 320.96 628.47 317.55 636.41 314.7 644.48 311.68 652.84 309.16 661.34 307.18 669.91 304.94 678.58 303.17 687.21 301.91 695.88 300.33 704.47 299.2 712.86 298.6" stroke-dasharray="9 0" transform="rotate(60.599999999999994, 711, 400)" opacity="0.70"></path><path d="M707.38 310C714.91 309.13 721.87 308.82 728.2 309.02 737.36 309.26 752.44 312.34 758.38 315.25 763.84 318.63 772.59 328.37 776.3 334.71 779.11 339.12 781.82 344.11 784.5 349.63 787.77 355.15 791.13 361.21 794.53 367.75 798.55 374.29 802.59 381.31 806.49 388.78 810.8 396.24 814.52 403.81 817.54 411.4 820.56 419 822.61 426.64 823.63 434.24 824.38 441.87 823.97 449.47 822.44 456.95 820.54 464.48 817.55 471.89 813.57 479.06 809.27 486.26 804.1 493.19 798.22 499.73 792.13 506.22 785.46 512.24 778.35 517.64 771.15 522.88 763.62 527.39 755.88 531.02 748.12 534.35 740.2 536.7 732.22 537.9 724.24 538.7 716.57 538.28 709.25 536.75 701.91 534.84 694.87 531.87 688.16 527.99 681.37 523.83 674.85 518.85 668.62 513.2 662.25 507.37 656.11 500.97 650.23 494.14 644.17 487.23 638.33 479.96 632.77 472.46 627.04 464.94 621.58 457.23 616.52 449.45 611.35 441.67 606.64 433.83 602.51 426.03 598.42 418.24 595.04 410.49 592.53 402.86 590.25 395.23 589.06 388.08 588.92 381.44 589.12 374.79 590.4 368.63 592.65 363.01 595.25 357.35 598.79 352.2 603.14 347.6 607.79 342.93 613.16 338.77 619.12 335.15 625.29 331.43 631.96 328.19 638.99 325.47 646.15 322.59 653.59 320.18 661.19 318.25 668.85 316.1 676.62 314.39 684.36 313.15 692.14 311.64 699.85 310.57 707.38 310" stroke-dasharray="2 9" transform="rotate(64.64, 711, 400)" opacity="0.67"></path><path d="M702.12 321.39C711.91 320.48 728.92 320.85 736.09 322.16 742.75 323.79 753.71 329.58 758.22 333.76 762.69 338.42 771.05 350.33 775.25 357.54 778.5 362.49 781.75 367.94 784.98 373.83 788.69 379.72 792.33 386.07 795.79 392.83 799.57 399.59 802.81 406.46 805.42 413.35 808.06 420.26 809.89 427.22 810.84 434.12 811.62 441.06 811.43 447.96 810.3 454.74 808.9 461.54 806.56 468.22 803.37 474.66 799.93 481.1 795.7 487.28 790.81 493.07 785.75 498.81 780.11 504.11 774.02 508.84 767.85 513.43 761.3 517.36 754.49 520.51 747.66 523.41 740.6 525.46 733.4 526.51 726.2 527.24 719.19 526.91 712.44 525.61 705.67 524.02 699.12 521.5 692.82 518.18 686.46 514.63 680.31 510.34 674.39 505.44 668.37 500.39 662.54 494.81 656.95 488.82 651.23 482.75 645.71 476.33 640.47 469.68 635.11 463 630.02 456.11 625.32 449.14 620.55 442.17 616.2 435.11 612.41 428.08 608.67 421.05 605.56 414.04 603.22 407.13 601.09 400.22 599.91 393.74 599.66 387.7 600.16 378.85 606.03 363.38 611.16 356.78 615.06 352.47 619.63 348.62 624.74 345.24 630.03 341.76 635.79 338.72 641.89 336.14 648.11 333.41 654.62 331.11 661.29 329.25 668.02 327.2 674.87 325.56 681.71 324.36 688.59 322.94 695.43 321.93 702.12 321.39" stroke-dasharray="6 1" transform="rotate(68.68, 711, 400)" opacity="0.57"></path><path d="M697.38 332.79C709.13 331.21 719.32 331.58 727.72 333.67 736.22 335.3 743.26 338.91 748.92 344.31 755.29 349.54 761.03 356.71 766.22 365.59 772.85 374.41 779.35 385 785.09 397.1 791.84 409.19 796.3 421.73 798.08 434.08 799.43 446.49 797.5 458.74 792.58 470.11 786.97 481.43 778.68 491.66 768.47 499.92 757.99 507.7 746.03 513.06 733.24 515.11 720.44 516.16 708.04 513.63 696.44 508.22 684.69 502.07 673.45 493.43 663.12 483.17 652.43 472.62 642.51 460.81 633.96 448.52 625.3 436.2 618.33 423.54 613.92 411.19 610.17 398.83 609.81 387.89 612.44 378.61 616 369.22 622.35 361.33 630.76 355.14 639.78 348.62 650.44 343.56 661.86 340.17 673.51 336.17 685.62 333.59 697.38 332.79" stroke-dasharray="6 5" transform="rotate(72.72, 711, 400)" opacity="0.30"></path><path d="M693.45 344.18C703.63 342.82 712.65 343.22 720.31 345.15 728.08 346.71 734.77 350 740.4 354.83 746.61 359.5 752.29 365.86 757.4 373.7 763.56 381.47 769.41 390.8 774.39 401.46 780.13 412.11 783.86 423.14 785.36 433.98 786.62 444.86 785.21 455.54 781.31 465.38 776.94 475.14 770.25 483.89 761.77 490.88 753.08 497.48 742.91 502 731.76 503.72 720.6 504.68 709.55 502.63 699.04 498.13 688.45 493.06 678.22 485.83 668.76 477.15 659.11 468.22 650.15 458.1 642.47 447.48 634.77 436.82 628.57 425.77 624.62 414.9 621.18 404.03 620.63 394.33 622.62 386.03 625.3 377.63 630.38 370.5 637.27 364.82 644.64 358.88 653.49 354.2 663.12 351 672.93 347.33 683.26 344.94 693.45 344.18" stroke-dasharray="11 3" transform="rotate(76.76, 711, 400)" opacity="0.95"></path><path d="M690.56 355.58C699.23 354.42 707.1 354.83 713.99 356.59 720.99 358.05 727.23 361 732.66 365.27 738.52 369.4 743.94 374.95 748.76 381.76 754.33 388.51 759.46 396.57 763.69 405.77 768.47 414.96 771.52 424.45 772.71 433.74 773.81 443.04 772.76 452.11 769.68 460.41 766.31 468.63 760.99 475.93 754.07 481.71 747.01 487.18 738.55 490.91 729.04 492.32 719.53 493.18 709.93 491.55 700.68 487.9 691.38 483.83 682.32 477.92 673.93 470.74 665.44 463.37 657.57 454.92 650.85 445.95 644.17 436.95 638.79 427.52 635.32 418.16 632.24 408.8 631.55 400.36 632.98 393.06 634.91 385.7 638.85 379.36 644.33 374.25 650.17 368.93 657.31 364.69 665.23 361.74 673.28 358.43 681.89 356.28 690.56 355.58" stroke-dasharray="3 8" transform="rotate(80.80000000000001, 711, 400)" opacity="0.63"></path><path d="M688.89 366.97C696.08 366.03 702.8 366.43 708.85 367.98 714.99 369.32 720.63 371.92 725.65 375.6 730.98 379.17 735.92 383.91 740.29 389.68 745.14 395.4 749.5 402.2 753 409.91 756.86 417.61 759.26 425.52 760.15 433.23 761.04 440.93 760.23 448.4 757.81 455.18 755.24 461.87 751.08 467.78 745.56 472.41 739.96 476.82 733.1 479.81 725.25 480.93 717.4 481.67 709.34 480.42 701.47 477.54 693.59 474.37 685.87 469.69 678.68 463.94 671.48 458.04 664.81 451.2 659.13 443.87 653.51 436.49 648.98 428.7 646.02 420.87 643.33 413.03 642.59 405.9 643.55 399.65 644.85 393.36 647.78 387.88 651.99 383.4 656.44 378.77 662.02 375.03 668.32 372.39 674.72 369.49 681.69 367.6 688.89 366.97" stroke-dasharray="9 5" transform="rotate(84.84, 711, 400)" opacity="0.83"></path><path d="M688.53 378.37C700.03 376.67 710.73 379.54 719.35 385.76 728.73 391.64 737.05 401.34 742.3 413.74 748.46 426.14 749.54 439.01 745.85 449.64 741.89 460.02 733.05 467.6 720.62 469.53 708.18 470.52 694.78 465.46 683.1 456.73 671.48 447.62 661.7 435.51 656.71 422.94 652.47 410.37 654.22 399.67 660.27 392.22 666.88 384.38 677.03 379.23 688.53 378.37" stroke-dasharray="5 4" transform="rotate(88.88, 711, 400)" opacity="0.64"></path><path d="M689.51 389.76C698.15 388.55 706.63 390.87 713.67 395.71 721.12 400.36 727.66 407.81 731.6 417.16 736.05 426.51 736.7 436.03 733.91 443.76 731.05 451.33 724.61 456.79 715.41 458.14 706.2 458.96 696.11 455.4 687.29 449.12 678.56 442.61 671.21 433.76 667.41 424.32 664.04 414.87 665.02 406.61 669.18 400.71 673.63 394.59 680.86 390.51 689.51 389.76" stroke-dasharray="7 10" transform="rotate(92.92, 711, 400)" opacity="0.66"></path><path d="M691.77 401.16C703.36 399.4 715.91 407.53 720.9 420.06 726.77 432.57 722.06 444.87 709.94 446.74 697.81 447.7 683.39 437.56 678.11 424.95 673.61 412.34 680.17 402.06 691.77 401.16" stroke-dasharray="8 0" transform="rotate(96.96, 711, 400)" opacity="0.10"></path></g></svg>